<svg width="285" height="203" viewBox="0 0 285 203" fill="none" xmlns="http://www.w3.org/2000/svg">
<path d="M92.909 0L50.63 23.132L132.547 77.386L171.734 51.535L92.909 0Z" fill="#3F3D56"/>
<path d="M194.582 73.493L284.67 131.572L242.833 156.437L152.779 96.318L194.582 73.493Z" fill="#3F3D56"/>
<path d="M178.001 44.6675C182.801 47.0052 187.013 50.3955 190.322 54.5861C193.631 58.7767 195.953 63.6596 197.114 68.8715C197.573 70.7682 197.494 72.7553 196.886 74.6096C196.278 76.4639 195.165 78.112 193.672 79.3686L167.627 101.364C165.754 102.942 163.445 103.914 161.007 104.149C158.569 104.384 156.117 103.872 153.976 102.681C143.387 96.8087 126.382 84.4822 133.976 68.8715C134.824 67.1375 136.123 65.663 137.735 64.6015L166.762 45.4074C168.408 44.3149 170.311 43.6718 172.283 43.5421C174.254 43.4123 176.225 43.8002 178.001 44.6675Z" fill="#D0CDE1"/>
<path d="M148.031 130.994C160.919 121.398 159.912 98.2344 145.782 79.2566C131.652 60.2787 109.75 52.6733 96.8615 62.2692C83.9732 71.8652 84.9799 95.0289 99.11 114.007C113.24 132.985 135.143 140.59 148.031 130.994Z" fill="#3F3D56"/>
<path opacity="0.2" d="M135.708 130.507C130.427 134.441 117.868 126.685 106.578 112.928C105.578 111.712 104.59 110.449 103.613 109.139C102.897 108.177 102.208 107.215 101.544 106.254C91.0757 91.1282 86.9378 76.2917 92.3445 72.2665C97.791 68.209 110.97 76.5779 122.523 91.1374C123.168 91.9531 123.807 92.7852 124.439 93.6337C126.626 96.5658 128.648 99.6171 130.497 102.773C137.943 115.555 140.363 127.038 135.708 130.507Z" fill="black"/>
<path d="M130.497 102.773L106.578 112.928L89.4651 120.193L86.9343 116.777L101.544 106.254L122.523 91.1374C123.168 91.9531 123.807 92.7852 124.439 93.6336C126.626 96.5658 128.648 99.6171 130.497 102.773Z" fill="#D0CDE1"/>
<path d="M84.8264 126.019C87.6977 126.019 90.0253 123.691 90.0253 120.82C90.0253 117.949 87.6977 115.621 84.8264 115.621C81.9551 115.621 79.6274 117.949 79.6274 120.82C79.6274 123.691 81.9551 126.019 84.8264 126.019Z" fill="#D0CDE1"/>
<path d="M83.3008 175.739C82.9701 175.437 82.5636 175.229 82.1245 175.139C54.1221 169.354 36.502 153.23 28.2592 125.85C28.0683 125.218 27.6343 124.688 27.0526 124.376C26.4708 124.064 25.7889 123.995 25.1566 124.185C24.5244 124.376 23.9936 124.809 23.6808 125.391C23.368 125.972 23.2989 126.654 23.4885 127.286C32.185 156.173 51.5735 173.914 81.1167 180.019C81.6511 180.129 82.2069 180.061 82.6988 179.824C83.1907 179.588 83.5914 179.197 83.8394 178.711C84.0875 178.225 84.1691 177.671 84.0718 177.134C83.9745 176.597 83.7036 176.107 83.3008 175.739Z" fill="url(#paint0_linear)"/>
<path d="M90.1922 154.062C89.8616 153.76 89.4551 153.552 89.016 153.463C68.0198 149.124 54.8088 137.035 48.628 116.506C48.4368 115.874 48.0028 115.344 47.4211 115.032C46.8395 114.72 46.1578 114.652 45.5257 114.842C44.8937 115.032 44.363 115.465 44.0501 116.047C43.7373 116.628 43.6679 117.309 43.8572 117.942C50.5201 140.073 65.3739 153.665 88.0082 158.342C88.5426 158.452 89.0984 158.384 89.5903 158.148C90.0822 157.912 90.4829 157.52 90.7309 157.034C90.979 156.548 91.0606 155.994 90.9633 155.457C90.866 154.921 90.5951 154.43 90.1922 154.062Z" fill="url(#paint1_linear)"/>
<path d="M73.1186 197.937C72.788 197.634 72.3815 197.427 71.9424 197.337C43.9974 191.563 13.4384 163.601 5.21243 136.277C5.02127 135.645 4.58724 135.115 4.00559 134.803C3.42393 134.491 2.74223 134.422 2.1102 134.613C1.47817 134.803 0.947446 135.236 0.634615 135.817C0.321785 136.399 0.252385 137.08 0.441683 137.713C9.13148 166.578 41.4133 196.117 70.9345 202.216C71.4689 202.327 72.0248 202.259 72.5166 202.022C73.0085 201.786 73.4092 201.395 73.6573 200.909C73.9053 200.423 73.9869 199.869 73.8896 199.332C73.7923 198.795 73.5214 198.305 73.1186 197.937Z" fill="url(#paint2_linear)"/>
<defs>
<linearGradient id="paint0_linear" x1="73" y1="128" x2="29" y2="179" gradientUnits="userSpaceOnUse">
<stop stop-color="#BB1FFD"/>
<stop offset="1" stop-color="#5E13BE"/>
</linearGradient>
<linearGradient id="paint1_linear" x1="73" y1="128" x2="29" y2="179" gradientUnits="userSpaceOnUse">
<stop stop-color="#BB1FFD"/>
<stop offset="1" stop-color="#5E13BE"/>
</linearGradient>
<linearGradient id="paint2_linear" x1="73" y1="128" x2="29" y2="179" gradientUnits="userSpaceOnUse">
<stop stop-color="#BB1FFD"/>
<stop offset="1" stop-color="#5E13BE"/>
</linearGradient>
</defs>
</svg>
