<svg width="922" height="832" viewBox="0 0 922 832" fill="none" xmlns="http://www.w3.org/2000/svg">
<g clip-path="url(#clip0)">
<path d="M436.469 793.018C556.018 793.018 652.932 696.105 652.932 576.556C652.932 457.007 556.018 360.093 436.469 360.093C316.92 360.093 220.007 457.007 220.007 576.556C220.007 696.105 316.92 793.018 436.469 793.018Z" fill="#F2F2F2"/>
<path d="M405.89 831.295C519.336 831.295 611.302 818.732 611.302 803.234C611.302 787.736 519.336 775.172 405.89 775.172C292.444 775.172 200.478 787.736 200.478 803.234C200.478 818.732 292.444 831.295 405.89 831.295Z" fill="#6C63FF"/>
<path opacity="0.3" d="M405.89 831.295C519.336 831.295 611.302 818.732 611.302 803.234C611.302 787.736 519.336 775.172 405.89 775.172C292.444 775.172 200.478 787.736 200.478 803.234C200.478 818.732 292.444 831.295 405.89 831.295Z" fill="black"/>
<path d="M414.019 234.646C421.631 232.087 426.795 227.017 425.553 223.323C424.311 219.628 417.134 218.707 409.522 221.265C401.91 223.824 396.746 228.893 397.988 232.588C399.23 236.283 406.408 237.204 414.019 234.646Z" fill="#3F3D56"/>
<path d="M382.295 260.126L458.57 225.372C458.57 225.372 587.792 176.529 698.335 295.757C698.335 295.757 648.793 263.954 611.241 305.964C611.241 305.964 540.579 286.847 481.28 357.088C481.28 357.088 388.533 371.133 349.905 420.353C349.905 420.353 306.841 413.731 289.701 468.323C289.616 468.591 289.465 468.831 289.261 469.023C289.057 469.215 288.807 469.351 288.535 469.419C288.263 469.487 287.979 469.483 287.708 469.41C287.438 469.336 287.192 469.194 286.992 468.998C286.754 468.765 286.593 468.466 286.531 468.139C284.922 459.702 265.982 347.153 382.295 260.126Z" fill="#9341FD"/>
<path opacity="0.2" d="M382.295 260.126L458.57 225.372C458.57 225.372 587.792 176.529 698.335 295.757C698.335 295.757 648.793 263.954 611.241 305.964C611.241 305.964 540.579 286.847 481.28 357.088C481.28 357.088 388.533 371.133 349.905 420.353C349.905 420.353 306.841 413.731 289.701 468.323C289.616 468.591 289.465 468.831 289.261 469.023C289.057 469.215 288.807 469.351 288.535 469.419C288.263 469.487 287.979 469.483 287.708 469.41C287.438 469.336 287.192 469.194 286.992 468.998C286.754 468.765 286.593 468.466 286.531 468.139C284.922 459.702 265.982 347.153 382.295 260.126Z" fill="black"/>
<path d="M405.524 404.125L437.285 409.419L447.872 359.13L422.287 348.543L405.524 404.125Z" fill="#2F2E41"/>
<path d="M449.196 393.979C464.301 393.979 476.546 381.734 476.546 366.629C476.546 351.524 464.301 339.279 449.196 339.279C434.091 339.279 421.846 351.524 421.846 366.629C421.846 381.734 434.091 393.979 449.196 393.979Z" fill="#A0616A"/>
<path d="M437.285 382.069C437.285 382.069 439.932 415.595 419.64 418.241C399.348 420.888 437.285 480.882 446.99 479.999C456.695 479.117 474.34 414.712 474.34 414.712C474.34 414.712 451.401 398.832 459.342 384.715L437.285 382.069Z" fill="#A0616A"/>
<path d="M403.318 504.261C403.318 504.261 406.847 529.847 417.434 529.847C428.022 529.847 410.376 500.732 410.376 500.732L403.318 504.261Z" fill="#A0616A"/>
<path d="M557.713 529.847C557.713 529.847 584.181 551.903 580.652 558.961C577.123 566.019 554.184 551.021 552.42 533.376L557.713 529.847Z" fill="#A0616A"/>
<path d="M398.025 614.544L381.262 677.184L362.734 753.058H380.38C380.38 753.058 386.555 729.237 398.025 716.885C398.025 716.885 409.494 697.476 409.494 684.242L436.844 619.837L398.025 614.544Z" fill="#A0616A"/>
<path d="M470.37 618.073L475.663 677.184C475.663 677.184 474.781 719.532 475.663 729.237C476.546 738.942 475.663 753.058 475.663 753.058H491.544C491.544 753.058 506.542 701.005 502.131 672.773L508.307 606.603L470.37 618.073Z" fill="#A0616A"/>
<path d="M449.196 455.737C449.196 455.737 425.426 436.9 431.576 410.587C431.576 410.587 407.73 411.624 398.025 421.329C388.32 431.034 400.672 463.678 400.672 463.678C400.672 463.678 421.846 498.968 418.317 514.848C414.788 530.729 376.851 614.544 389.202 619.837C401.554 625.131 476.546 643.658 514.483 612.779C514.483 612.779 524.188 525.436 485.368 497.203V475.147C485.368 475.147 492.426 468.971 488.897 453.09C488.897 453.09 503.896 425.74 495.073 420.447C486.25 415.153 465.984 407.396 465.984 407.396C465.984 407.396 467.723 446.915 449.196 455.737Z" fill="#2F2E41"/>
<path d="M403.318 421.329C403.318 421.329 391.849 419.565 380.38 436.328C368.91 453.09 338.914 479.558 353.03 492.792C367.146 506.026 405.083 514.848 405.083 514.848L413.905 498.968L375.968 480.44L407.73 456.619L403.318 421.329Z" fill="#2F2E41"/>
<path d="M490.662 421.329C490.662 421.329 503.013 421.329 508.307 436.328C513.6 451.326 544.479 502.497 544.479 502.497L562.125 529.847L549.773 543.963L515.365 505.144L482.721 451.326L490.662 421.329Z" fill="#2F2E41"/>
<path d="M383.909 751.293H359.205L353.912 794.524C353.912 794.524 339.796 817.463 360.97 814.816C382.144 812.169 375.086 788.348 375.086 788.348L380.38 779.526L382.144 798.053L383.909 797.171V776.879C383.909 776.879 393.613 768.056 383.909 751.293Z" fill="#2F2E41"/>
<path d="M495.955 751.293L473.017 749.529L468.605 798.935C468.605 798.935 465.959 817.463 481.839 814.816C497.72 812.169 492.426 797.171 492.426 797.171V769.821L495.955 751.293Z" fill="#2F2E41"/>
<path d="M429.345 338.838C429.345 338.838 416.492 343.122 415.839 360.042C415.773 362.748 416.073 365.451 416.731 368.077C417.455 371.144 417.92 377.743 412.311 386.368C408.556 392.062 405.125 397.964 402.035 404.045L401.995 404.125L416.111 405.89L419.113 382.491C420.568 371.147 423.685 360.079 428.365 349.643L428.463 349.425C428.463 349.425 434.638 360.895 446.99 360.895L442.579 356.483C442.579 356.483 461.988 364.424 469.046 364.424C469.046 364.424 474.34 367.953 469.046 373.246C463.753 378.54 453.166 390.891 459.342 400.596C465.517 410.301 460.224 412.948 460.224 412.948L469.929 407.654L474.34 405.007V408.536L497.279 405.89C497.279 405.89 503.454 405.007 490.221 390.009C490.221 390.009 486.726 384.185 488.255 379.161C489.511 375.343 489.841 371.282 489.218 367.311C486.253 350.772 474.621 317.889 429.345 338.838Z" fill="#2F2E41"/>
<path d="M567.308 557.397C576.037 548.519 566.369 530.134 565.613 528.736L465.911 325.142C465.606 324.527 465.07 324.057 464.42 323.836C463.77 323.615 463.059 323.661 462.442 323.963C461.826 324.265 461.354 324.798 461.13 325.448C460.906 326.097 460.948 326.808 461.248 327.426L561 531.12L561.028 531.171C561.127 531.353 570.754 549.637 562.18 554.876C552.946 560.522 542.178 551.375 542.071 551.282C541.813 551.059 541.514 550.888 541.19 550.78C540.866 550.673 540.524 550.63 540.184 550.654C539.843 550.679 539.511 550.77 539.206 550.923C538.901 551.076 538.629 551.288 538.406 551.546C538.183 551.805 538.013 552.104 537.906 552.428C537.799 552.752 537.756 553.094 537.782 553.435C537.807 553.775 537.899 554.107 538.052 554.412C538.206 554.717 538.418 554.988 538.677 555.211C539.234 555.692 552.457 566.906 564.888 559.305C565.77 558.77 566.582 558.13 567.308 557.397V557.397Z" fill="#3F3D56"/>
<path d="M375.163 245.528L449.036 211.868C449.036 211.868 574.19 164.562 681.253 280.037C681.253 280.037 633.271 249.236 596.901 289.923C596.901 289.923 528.464 271.408 471.032 339.437C471.032 339.437 381.204 353.04 343.792 400.711C343.792 400.711 300.785 394.097 284.732 449.665L282.511 447.481C282.511 447.481 258.056 333.148 375.163 245.528Z" fill="#9341FD"/>
<path d="M375.527 245.319C375.527 245.319 339.355 367.07 343.766 400.596Z" fill="#3F3D56"/>
<path d="M413.757 227.943C413.757 227.943 459.342 330.898 470.811 339.72Z" fill="#3F3D56"/>
<path d="M448.755 211.793C448.755 211.793 566.095 282.374 596.974 290.314Z" fill="#3F3D56"/>
<path d="M272.342 798.546C272.13 798.2 267.13 789.851 265.397 772.516C263.807 756.612 264.829 729.804 278.732 692.41C305.071 621.569 272.662 564.41 272.331 563.84L273.93 562.913C274.014 563.057 282.377 577.63 287.317 600.836C293.844 631.602 291.467 663.591 280.465 693.054C254.171 763.775 273.719 797.253 273.919 797.583L272.342 798.546Z" fill="#3F3D56"/>
<path d="M262.043 559.681C268.677 559.681 274.055 554.303 274.055 547.669C274.055 541.035 268.677 535.658 262.043 535.658C255.409 535.658 250.031 541.035 250.031 547.669C250.031 554.303 255.409 559.681 262.043 559.681Z" fill="#403D98"/>
<path d="M299.926 604.031C306.559 604.031 311.937 598.653 311.937 592.02C311.937 585.386 306.559 580.008 299.926 580.008C293.292 580.008 287.914 585.386 287.914 592.02C287.914 598.653 293.292 604.031 299.926 604.031Z" fill="#403D98"/>
<path d="M274.055 633.598C280.688 633.598 286.066 628.22 286.066 621.587C286.066 614.953 280.688 609.575 274.055 609.575C267.421 609.575 262.043 614.953 262.043 621.587C262.043 628.22 267.421 633.598 274.055 633.598Z" fill="#7634CA"/>
<path d="M305.469 658.545C312.103 658.545 317.481 653.167 317.481 646.534C317.481 639.9 312.103 634.522 305.469 634.522C298.836 634.522 293.458 639.9 293.458 646.534C293.458 653.167 298.836 658.545 305.469 658.545Z" fill="#7634CA"/>
<path d="M264.815 697.352C271.449 697.352 276.826 691.974 276.826 685.34C276.826 678.707 271.449 673.329 264.815 673.329C258.181 673.329 252.803 678.707 252.803 685.34C252.803 691.974 258.181 697.352 264.815 697.352Z" fill="#403D98"/>
<path d="M279.598 798.988C279.598 798.988 267.587 769.421 303.622 747.246L279.598 798.988Z" fill="#3F3D56"/>
<path d="M264.826 798.452C264.826 798.452 259.359 767.01 217.049 767.279L264.826 798.452Z" fill="#3F3D56"/>
<path d="M191.762 0L234.041 23.132L152.123 77.386L112.936 51.535L191.762 0Z" fill="#3F3D56"/>
<path d="M90.089 73.493L0 131.572L41.837 156.437L131.892 96.318L90.089 73.493Z" fill="#3F3D56"/>
<path d="M106.67 44.6675C101.869 47.0052 97.6576 50.3955 94.3485 54.5861C91.0393 58.7766 88.7179 63.6596 87.557 68.8715C87.0979 70.7682 87.1768 72.7553 87.7847 74.6096C88.3927 76.4639 89.5057 78.112 90.9987 79.3686L117.043 101.364C118.916 102.942 121.225 103.914 123.663 104.149C126.102 104.384 128.554 103.872 130.694 102.681C141.283 96.8087 158.288 84.4822 150.695 68.8715C149.846 67.1376 148.548 65.663 146.935 64.6016L117.909 45.4074C116.263 44.3149 114.359 43.6719 112.388 43.5421C110.416 43.4123 108.445 43.8002 106.67 44.6675V44.6675Z" fill="#D0CDE1"/>
<path d="M185.561 114.007C199.691 95.0288 200.697 71.8652 187.809 62.2692C174.921 52.6732 153.018 60.2787 138.888 79.2565C124.758 98.2343 123.751 121.398 136.64 130.994C149.528 140.59 171.431 132.984 185.561 114.007Z" fill="#3F3D56"/>
<path opacity="0.2" d="M148.963 130.507C154.243 134.441 166.803 126.685 178.092 112.928C179.092 111.712 180.081 110.449 181.058 109.139C181.773 108.177 182.463 107.215 183.127 106.254C193.595 91.1282 197.733 76.2917 192.326 72.2665C186.879 68.209 173.701 76.5779 162.148 91.1374C161.503 91.9531 160.864 92.7852 160.231 93.6337C158.045 96.5658 156.022 99.6171 154.174 102.773C146.728 115.555 144.308 127.038 148.963 130.507Z" fill="black"/>
<path d="M154.174 102.773L178.092 112.928L195.205 120.193L197.736 116.777L183.127 106.254L162.148 91.1374C161.503 91.9531 160.864 92.7852 160.231 93.6337C158.045 96.5659 156.022 99.6171 154.174 102.773V102.773Z" fill="#D0CDE1"/>
<path d="M199.844 126.019C202.715 126.019 205.043 123.691 205.043 120.82C205.043 117.949 202.715 115.621 199.844 115.621C196.973 115.621 194.645 117.949 194.645 120.82C194.645 123.691 196.973 126.019 199.844 126.019Z" fill="#D0CDE1"/>
<path d="M201.37 175.739C201.701 175.437 202.107 175.229 202.546 175.139C230.548 169.354 248.168 153.23 256.411 125.85C256.602 125.218 257.036 124.688 257.618 124.376C258.2 124.064 258.882 123.995 259.514 124.185C260.146 124.376 260.677 124.809 260.99 125.391C261.303 125.972 261.372 126.654 261.182 127.286C252.486 156.173 233.097 173.914 203.554 180.019C203.019 180.129 202.464 180.061 201.972 179.824C201.48 179.588 201.079 179.197 200.831 178.711C200.583 178.225 200.501 177.671 200.599 177.134C200.696 176.597 200.967 176.107 201.37 175.739H201.37Z" fill="#9341FD"/>
<path d="M194.478 154.062C194.809 153.76 195.215 153.552 195.655 153.463C216.651 149.124 229.862 137.035 236.043 116.506C236.234 115.874 236.668 115.344 237.249 115.032C237.831 114.72 238.513 114.652 239.145 114.842C239.777 115.032 240.308 115.465 240.62 116.047C240.933 116.628 241.003 117.309 240.813 117.942C234.15 140.073 219.297 153.665 196.662 158.342C196.128 158.452 195.572 158.384 195.08 158.148C194.588 157.912 194.188 157.52 193.94 157.034C193.692 156.548 193.61 155.994 193.707 155.457C193.805 154.921 194.075 154.431 194.478 154.062L194.478 154.062Z" fill="#9341FD"/>
<path d="M211.552 197.937C211.883 197.634 212.289 197.427 212.728 197.337C240.673 191.563 271.232 163.601 279.458 136.277C279.649 135.645 280.083 135.115 280.665 134.803C281.247 134.491 281.928 134.422 282.56 134.613C283.192 134.803 283.723 135.236 284.036 135.817C284.349 136.399 284.418 137.08 284.229 137.713C275.539 166.578 243.257 196.117 213.736 202.216C213.202 202.327 212.646 202.259 212.154 202.022C211.662 201.786 211.261 201.395 211.013 200.909C210.765 200.423 210.684 199.869 210.781 199.332C210.878 198.795 211.149 198.305 211.552 197.937H211.552Z" fill="#9341FD"/>
<path d="M729.909 0L687.63 23.132L769.547 77.386L808.734 51.535L729.909 0Z" fill="#3F3D56"/>
<path d="M831.582 73.493L921.67 131.572L879.833 156.437L789.779 96.318L831.582 73.493Z" fill="#3F3D56"/>
<path d="M815.001 44.6675C819.801 47.0052 824.013 50.3955 827.322 54.5861C830.631 58.7767 832.953 63.6596 834.114 68.8715C834.573 70.7682 834.494 72.7553 833.886 74.6096C833.278 76.4639 832.165 78.112 830.672 79.3686L804.627 101.364C802.754 102.942 800.445 103.914 798.007 104.149C795.569 104.384 793.117 103.872 790.976 102.681C780.387 96.8087 763.382 84.4822 770.976 68.8715C771.824 67.1375 773.123 65.663 774.735 64.6015L803.762 45.4074C805.408 44.3149 807.311 43.6718 809.283 43.5421C811.254 43.4123 813.225 43.8002 815.001 44.6675V44.6675Z" fill="#D0CDE1"/>
<path d="M785.031 130.994C797.919 121.398 796.912 98.2344 782.782 79.2566C768.652 60.2787 746.75 52.6733 733.861 62.2692C720.973 71.8652 721.98 95.0289 736.11 114.007C750.24 132.985 772.143 140.59 785.031 130.994Z" fill="#3F3D56"/>
<path opacity="0.2" d="M772.708 130.507C767.427 134.441 754.868 126.685 743.578 112.928C742.578 111.712 741.59 110.449 740.613 109.139C739.897 108.177 739.208 107.215 738.544 106.254C728.076 91.1282 723.938 76.2917 729.345 72.2665C734.791 68.209 747.97 76.5779 759.523 91.1374C760.168 91.9531 760.807 92.7852 761.439 93.6337C763.626 96.5658 765.648 99.6171 767.497 102.773C774.943 115.555 777.363 127.038 772.708 130.507Z" fill="black"/>
<path d="M767.497 102.773L743.578 112.928L726.465 120.193L723.934 116.777L738.544 106.254L759.523 91.1374C760.168 91.9531 760.807 92.7852 761.439 93.6336C763.626 96.5658 765.648 99.6171 767.497 102.773V102.773Z" fill="#D0CDE1"/>
<path d="M721.826 126.019C724.698 126.019 727.025 123.691 727.025 120.82C727.025 117.949 724.698 115.621 721.826 115.621C718.955 115.621 716.627 117.949 716.627 120.82C716.627 123.691 718.955 126.019 721.826 126.019Z" fill="#D0CDE1"/>
<path d="M720.301 175.739C719.97 175.437 719.564 175.229 719.125 175.139C691.122 169.354 673.502 153.23 665.259 125.85C665.068 125.218 664.634 124.688 664.053 124.376C663.471 124.064 662.789 123.995 662.157 124.185C661.524 124.376 660.994 124.809 660.681 125.391C660.368 125.972 660.299 126.654 660.489 127.286C669.185 156.173 688.573 173.914 718.117 180.019C718.651 180.129 719.207 180.061 719.699 179.824C720.191 179.588 720.591 179.197 720.839 178.711C721.087 178.225 721.169 177.671 721.072 177.134C720.974 176.597 720.704 176.107 720.301 175.739H720.301Z" fill="#9341FD"/>
<path d="M727.192 154.062C726.862 153.76 726.455 153.552 726.016 153.463C705.02 149.124 691.809 137.035 685.628 116.506C685.437 115.874 685.003 115.344 684.421 115.032C683.839 114.72 683.158 114.652 682.526 114.842C681.894 115.032 681.363 115.465 681.05 116.047C680.737 116.628 680.668 117.309 680.857 117.942C687.52 140.073 702.374 153.665 725.008 158.342C725.543 158.452 726.098 158.384 726.59 158.148C727.082 157.912 727.483 157.52 727.731 157.034C727.979 156.548 728.061 155.994 727.963 155.457C727.866 154.921 727.595 154.431 727.192 154.062V154.062Z" fill="#9341FD"/>
<path d="M710.119 197.937C709.788 197.634 709.381 197.427 708.942 197.337C680.997 191.563 650.438 163.601 642.212 136.277C642.021 135.645 641.587 135.115 641.006 134.803C640.424 134.491 639.742 134.422 639.11 134.613C638.478 134.803 637.947 135.236 637.635 135.817C637.322 136.399 637.252 137.08 637.442 137.713C646.131 166.578 678.413 196.117 707.935 202.216C708.469 202.327 709.025 202.259 709.517 202.022C710.009 201.786 710.409 201.395 710.657 200.909C710.905 200.423 710.987 199.869 710.89 199.332C710.792 198.795 710.521 198.305 710.119 197.937V197.937Z" fill="#9341FD"/>
</g>
<defs>
<clipPath id="clip0">
<rect width="921.67" height="831.295" fill="white"/>
</clipPath>
</defs>
</svg>
