<svg width="285" height="203" viewBox="0 0 285 203" fill="none" xmlns="http://www.w3.org/2000/svg">
<path d="M191.762 0L234.041 23.132L152.123 77.386L112.936 51.535L191.762 0Z" fill="#3F3D56"/>
<path d="M90.089 73.493L0 131.572L41.837 156.437L131.892 96.318L90.089 73.493Z" fill="#3F3D56"/>
<path d="M106.67 44.6675C101.869 47.0052 97.6576 50.3955 94.3485 54.5861C91.0393 58.7766 88.7179 63.6596 87.557 68.8715C87.0979 70.7682 87.1768 72.7553 87.7847 74.6096C88.3927 76.4639 89.5057 78.112 90.9987 79.3686L117.043 101.364C118.916 102.942 121.225 103.914 123.663 104.149C126.102 104.384 128.554 103.872 130.694 102.681C141.283 96.8087 158.288 84.4822 150.695 68.8715C149.846 67.1376 148.548 65.663 146.935 64.6016L117.909 45.4074C116.263 44.3149 114.359 43.6719 112.388 43.5421C110.416 43.4123 108.445 43.8002 106.67 44.6675Z" fill="#D0CDE1"/>
<path d="M185.561 114.007C199.691 95.0288 200.697 71.8652 187.809 62.2692C174.921 52.6732 153.018 60.2787 138.888 79.2565C124.758 98.2343 123.751 121.398 136.64 130.994C149.528 140.59 171.431 132.984 185.561 114.007Z" fill="#3F3D56"/>
<path opacity="0.2" d="M148.963 130.507C154.243 134.441 166.803 126.685 178.092 112.928C179.092 111.712 180.081 110.449 181.058 109.139C181.773 108.177 182.463 107.215 183.127 106.254C193.595 91.1282 197.733 76.2917 192.326 72.2665C186.879 68.209 173.701 76.5779 162.148 91.1374C161.503 91.9531 160.864 92.7852 160.231 93.6337C158.045 96.5658 156.022 99.6171 154.174 102.773C146.728 115.555 144.308 127.038 148.963 130.507Z" fill="black"/>
<path d="M154.174 102.773L178.092 112.928L195.205 120.193L197.736 116.777L183.127 106.254L162.148 91.1374C161.503 91.9531 160.864 92.7852 160.231 93.6337C158.045 96.5659 156.022 99.6171 154.174 102.773Z" fill="#D0CDE1"/>
<path d="M199.844 126.019C202.715 126.019 205.043 123.691 205.043 120.82C205.043 117.949 202.715 115.621 199.844 115.621C196.973 115.621 194.645 117.949 194.645 120.82C194.645 123.691 196.973 126.019 199.844 126.019Z" fill="#D0CDE1"/>
<path d="M201.37 175.739C201.701 175.437 202.107 175.229 202.546 175.139C230.548 169.354 248.168 153.23 256.411 125.85C256.602 125.218 257.036 124.688 257.618 124.376C258.2 124.064 258.882 123.995 259.514 124.185C260.146 124.376 260.677 124.809 260.99 125.391C261.303 125.972 261.372 126.654 261.182 127.286C252.486 156.173 233.097 173.914 203.554 180.019C203.019 180.129 202.464 180.061 201.972 179.824C201.48 179.588 201.079 179.197 200.831 178.711C200.583 178.225 200.501 177.671 200.599 177.134C200.696 176.597 200.967 176.107 201.37 175.739Z" fill="url(#paint0_linear)"/>
<path d="M194.478 154.062C194.809 153.76 195.215 153.552 195.655 153.463C216.651 149.124 229.862 137.035 236.043 116.506C236.234 115.874 236.668 115.344 237.249 115.032C237.831 114.72 238.513 114.652 239.145 114.842C239.777 115.032 240.308 115.465 240.62 116.047C240.933 116.628 241.003 117.309 240.813 117.942C234.15 140.073 219.297 153.665 196.662 158.342C196.128 158.452 195.572 158.384 195.08 158.148C194.588 157.912 194.188 157.52 193.94 157.034C193.692 156.548 193.61 155.994 193.707 155.457C193.805 154.921 194.075 154.43 194.478 154.062Z" fill="url(#paint1_linear)"/>
<path d="M211.552 197.937C211.883 197.634 212.289 197.427 212.728 197.337C240.673 191.563 271.232 163.601 279.458 136.277C279.649 135.645 280.083 135.115 280.665 134.803C281.247 134.491 281.928 134.422 282.56 134.613C283.192 134.803 283.723 135.236 284.036 135.817C284.349 136.399 284.418 137.08 284.229 137.713C275.539 166.578 243.257 196.117 213.736 202.216C213.202 202.327 212.646 202.259 212.154 202.022C211.662 201.786 211.261 201.395 211.013 200.909C210.765 200.423 210.684 199.869 210.781 199.332C210.878 198.795 211.149 198.305 211.552 197.937Z" fill="url(#paint2_linear)"/>
<defs>
<linearGradient id="paint0_linear" x1="211" y1="136" x2="259" y2="185" gradientUnits="userSpaceOnUse">
<stop stop-color="#BB1FFD"/>
<stop offset="1" stop-color="#5E13BE"/>
</linearGradient>
<linearGradient id="paint1_linear" x1="211" y1="136" x2="259" y2="185" gradientUnits="userSpaceOnUse">
<stop stop-color="#BB1FFD"/>
<stop offset="1" stop-color="#5E13BE"/>
</linearGradient>
<linearGradient id="paint2_linear" x1="211" y1="136" x2="259" y2="185" gradientUnits="userSpaceOnUse">
<stop stop-color="#BB1FFD"/>
<stop offset="1" stop-color="#5E13BE"/>
</linearGradient>
</defs>
</svg>
