<svg width="49" height="48" viewBox="0 0 49 48" fill="none" xmlns="http://www.w3.org/2000/svg">
<path fill-rule="evenodd" clip-rule="evenodd" d="M0.342407 24C0.342407 37.2637 11.0978 48 24.3424 48C37.5871 48 48.3424 37.2637 48.3424 24C48.3424 10.7363 37.6061 0 24.3424 0C11.0787 0 0.342407 10.7363 0.342407 24ZM3.55379 21.1308L5.37802 18.5845C5.37802 18.6035 5.26401 22.2519 5.26401 22.2519L5.77707 19.4966C7.29726 22.575 11.0217 26.8315 14.4232 29.1118C14.7842 29.3588 15.0882 29.6248 15.2973 29.8909C15.7343 30.0619 16.1714 30.1569 16.6084 30.2329C16.8202 30.2682 17.0484 30.2871 17.2626 30.3049L17.3115 30.3089C17.5395 30.3279 17.7866 30.3279 18.0146 30.3279C18.2426 30.3279 18.4707 30.3089 18.6987 30.2899C18.9267 30.2709 19.1547 30.2329 19.3827 30.1949L19.3828 30.1949C19.6108 30.1569 19.8388 30.1189 20.0479 30.0429C20.2759 29.9859 20.4849 29.9289 20.7129 29.8529C20.8641 29.8116 21.0252 29.7506 21.1818 29.6911C21.2418 29.6684 21.3011 29.6459 21.359 29.6248C21.4287 29.5932 21.4984 29.5636 21.5681 29.5341C21.7074 29.4749 21.8468 29.4158 21.9861 29.3398C22.0694 29.2944 22.1527 29.252 22.2348 29.2101C22.3587 29.147 22.4799 29.0853 22.5942 29.0168C22.7236 28.958 22.8457 28.8846 22.9695 28.8102L22.9695 28.8101C23.0457 28.7644 23.1226 28.7182 23.2022 28.6747C23.3068 28.6177 23.4065 28.556 23.5063 28.4942C23.606 28.4324 23.7058 28.3707 23.8103 28.3137C23.9401 28.2429 24.0626 28.1648 24.1823 28.0884L24.1823 28.0884C24.2554 28.0418 24.3274 27.9958 24.3994 27.9526C24.4944 27.8861 24.5941 27.8244 24.6939 27.7627L24.6939 27.7626L24.694 27.7626C24.7937 27.7008 24.8935 27.6391 24.9885 27.5726C25.1054 27.4907 25.2296 27.4161 25.3565 27.3397L25.3566 27.3397C25.4358 27.292 25.5162 27.2437 25.5965 27.1925L25.7866 27.0785L25.8816 27.1355L27.2498 28.0476L25.8626 27.6866L25.8625 27.6867C25.7295 27.8387 25.5965 27.9907 25.4445 28.1427C25.359 28.2282 25.2688 28.3137 25.1785 28.3992C25.0882 28.4847 24.998 28.5702 24.9125 28.6557C24.8628 28.6954 24.8131 28.7365 24.7631 28.7778C24.6218 28.8945 24.4778 29.0135 24.3234 29.1118C24.1144 29.2638 23.9243 29.3968 23.6963 29.5298C23.2783 29.7959 22.8222 30.0239 22.3471 30.2139C22.1191 30.3089 21.8721 30.4039 21.6441 30.4799C21.5966 30.4946 21.5498 30.5092 21.5035 30.5236L21.5034 30.5237C21.3086 30.5845 21.1215 30.6429 20.922 30.689L20.9219 30.689C20.6749 30.746 20.4279 30.803 20.1809 30.841C20.0574 30.86 19.9339 30.8742 19.8105 30.8885L19.8103 30.8885C19.6868 30.9028 19.5633 30.917 19.4398 30.936C18.9457 30.955 18.4327 30.955 17.9386 30.879C17.6916 30.841 17.4445 30.803 17.1975 30.746C16.9505 30.689 16.7225 30.613 16.4945 30.537L16.4944 30.537C16.0954 30.3849 15.6963 30.1949 15.3353 29.9669C15.3353 29.9669 14.0241 30.1569 14.5562 31.145C14.7477 31.5007 14.9737 31.716 15.1668 31.9C15.5101 32.2272 15.7495 32.4554 15.5063 33.1973C15.2403 33.8244 14.8602 34.4324 14.4422 35.0025C14.1302 35.423 13.7552 35.8266 13.4081 36.2003C12.7826 36.8735 12.2474 37.4496 12.3329 37.8529C18.5467 45.5108 32.5514 44.4467 37.8721 37.6058C37.8376 37.1574 37.4979 36.8147 37.0358 36.3485C36.4797 35.7874 35.7464 35.0475 35.1547 33.7294C35.4588 33.8244 35.9148 33.9574 35.9148 33.9384C35.9148 33.9329 35.8067 33.7541 35.6517 33.4977L35.6516 33.4976C35.2706 32.8675 34.6062 31.7687 34.5657 31.6201L35.4018 31.6771C35.4018 31.6771 34.2996 30.3089 34.2616 30.1759L35.3828 30.0239C35.3828 30.0239 33.9766 28.4087 33.9576 28.2757L35.3828 28.5037L33.8246 26.6225H34.5657L33.6916 25.3493C33.5395 25.2923 33.3875 25.2543 33.2355 25.2163L32.6654 25.0453L32.4565 24.98C30.4052 24.3397 28.4594 23.7322 26.5847 22.556C23.8673 20.8647 21.435 18.7935 19.6108 17.1783L15.9433 15.3921C12.4279 15.126 9.12149 15.221 7.10724 15.6201L8.3994 13.4158L6.42315 15.7911C6.29013 15.7531 6.25213 15.6771 6.25213 15.6771L6.38515 12.7507L5.75807 15.3921C5.56804 15.297 5.34002 15.259 5.11199 15.259C4.23788 15.259 3.53479 15.9621 3.53479 16.8362C3.53479 17.6343 4.12386 18.2994 4.90296 18.3944L3.55379 21.1308ZM19.8008 10.5843C19.4018 11.5344 19.3258 12.5415 19.6108 13.3206C18.5372 13.5546 16.4967 13.4097 15.121 13.3121C14.5974 13.2749 14.1701 13.2446 13.9291 13.2446C13.9861 13.2826 14.0621 13.3206 14.1381 13.3586L20.2379 16.247L20.2949 16.304C22.1001 17.9002 24.5134 19.9524 27.1927 21.6246C28.8649 22.6888 34.8697 24.551 35.1547 24.627C34.6521 23.3836 35.4386 21.8639 36.1425 20.5038C36.4498 19.9101 36.7413 19.3469 36.903 18.8503C37.549 16.855 37.7771 14.6698 37.017 12.6745C35.4398 8.55101 29.302 5.56763 25.1025 7.23984C24.3424 7.54388 23.6583 7.98094 23.0692 8.513C22.8792 8.43699 22.6892 8.39899 22.4801 8.39899C21.454 8.39899 20.3709 9.2731 19.8008 10.5843Z" fill="#949494"/>
<path d="M22.6322 9.23511C22.7462 9.23511 22.8602 9.25411 22.9742 9.31112C23.2783 9.44414 23.5063 9.78618 23.5823 10.2422C23.6773 10.7933 23.6013 11.4394 23.3163 12.0475C22.8982 13.0166 22.0811 13.7197 21.397 13.7197C21.283 13.7197 21.169 13.7007 21.074 13.6627C20.789 13.5487 20.637 13.2826 20.5609 13.0736C20.3329 12.5035 20.3899 11.6674 20.713 10.9073C21.15 9.9382 21.9481 9.23511 22.6322 9.23511ZM22.6322 8.66504C21.7201 8.66504 20.713 9.50114 20.1809 10.6983C19.7818 11.5914 19.7248 12.5605 20.0099 13.3016C20.1809 13.7387 20.4659 14.0427 20.827 14.2137C20.998 14.2897 21.188 14.3277 21.397 14.3277C22.3092 14.3277 23.3163 13.4916 23.8294 12.2945C24.1524 11.5724 24.2474 10.8123 24.1334 10.1472C24.0194 9.48214 23.6773 9.00708 23.1833 8.79806C23.0312 8.70304 22.8412 8.66504 22.6322 8.66504Z" fill="#949494"/>
</svg>
