<svg width="80" height="80" viewBox="0 0 80 80" fill="none" xmlns="http://www.w3.org/2000/svg">
<path d="M56.6333 35.1307H24.3085V25.4094C27.5885 12.4075 40.4712 12.2286 40.4712 12.2286C40.4712 12.2286 53.3532 12.4075 56.6333 25.4094V35.1307ZM40.4712 0.00242487C40.4712 0.00242487 16.8678 -0.772673 12 25.4094V43.2415C12 43.2415 12.2016 45.1501 17.569 49.027C22.9366 52.9032 36.8329 63.8177 40.4712 63.8177C44.109 63.8177 58.0052 52.9032 63.3727 49.027C68.7402 45.1501 68.9417 43.2415 68.9417 43.2415V25.4094C64.0734 -0.772673 40.4712 0.00242487 40.4712 0.00242487Z" fill="#484961"/>
<path d="M40.4712 67.8334C40.4712 67.8334 36.8132 67.4752 33.95 65.4872C31.0874 63.4998 12 49.8618 12 49.8618V76.8589C12 76.8589 12.1616 80 15.621 80C19.08 80 40.4712 80 40.4712 80C40.4712 80 61.8618 80 65.3207 80C68.7801 80 68.9417 76.8589 68.9417 76.8589V49.8618C68.9417 49.8618 49.8544 63.4998 46.9912 65.4872C44.1286 67.4752 40.4712 67.8334 40.4712 67.8334" fill="#484961"/>
</svg>
