<svg width="37" height="49" viewBox="0 0 37 49" fill="none" xmlns="http://www.w3.org/2000/svg">
<g clip-path="url(#clip0)">
<path d="M36.3434 6.45308C36.3434 1.29179 31.4402 0.00146484 27.5692 0.00146484V0.775658C29.8918 0.775658 31.6982 1.54985 31.6982 3.3563C31.6806 3.73506 31.5844 4.106 31.4157 4.44554C31.2469 4.78509 31.0094 5.08579 30.7181 5.32852C30.4268 5.57125 30.0882 5.7507 29.7238 5.85545C29.3594 5.9602 28.9772 5.98795 28.6014 5.93695C25.6845 5.62529 22.8212 4.93116 20.0853 3.87243C17.1819 2.77843 14.1434 2.08391 11.0531 1.80792C9.93205 1.76323 8.81338 1.94249 7.76246 2.33521C6.71155 2.72794 5.74948 3.32625 4.93251 4.09516C4.11555 4.86407 3.46008 5.78815 3.00444 6.81335C2.5488 7.83856 2.30213 8.94432 2.27886 10.066C2.26231 11.2954 2.62505 12.5001 3.31771 13.516C4.01038 14.5319 4.99929 15.3097 6.14983 15.7434L6.4079 15.2273C5.92445 14.9973 5.51963 14.6297 5.24419 14.1707C4.96875 13.7116 4.83493 13.1814 4.85951 12.6466C4.96668 11.7931 5.40618 11.0163 6.0826 10.4848C6.75902 9.95334 7.61776 9.71011 8.47241 9.80792C11.7421 10.167 14.9515 10.9477 18.0208 12.1305C21.1539 13.0313 24.3438 13.721 27.5692 14.195V22.195L23.6982 25.5499V25.8079L27.5692 29.1628V40.2595C25.6086 41.376 23.3713 41.9129 21.1176 41.8079C19.239 41.9067 17.362 41.5876 15.6216 40.8736C13.8813 40.1596 12.321 39.0685 11.0531 37.6789L21.6337 32.5176V14.4531L8.73048 20.1305C10.1746 17.0252 12.5104 14.42 15.4402 12.6466L15.1821 12.1305C11.1365 13.1127 7.51743 15.3779 4.86601 18.5875C2.2146 21.7971 0.673251 25.7787 0.472412 29.9369C0.485678 34.7239 2.39316 39.311 5.77804 42.6958C9.16292 46.0807 13.75 47.9882 18.5369 48.0015C20.7609 48.0338 22.9691 47.624 25.0333 46.7957C27.0974 45.9673 28.9765 44.7371 30.5612 43.1764C32.1458 41.6158 33.4046 39.7557 34.2643 37.7044C35.1241 35.6531 35.5676 33.4514 35.5692 31.2273H35.0531C33.6947 34.5219 31.3512 37.3161 28.3434 39.2273V28.6466L32.4724 25.2918V25.0337L28.6014 21.6789V13.9369C29.6096 13.9873 30.6173 13.8301 31.5623 13.4752C32.5072 13.1203 33.3693 12.5751 34.095 11.8736C34.8208 11.172 35.3948 10.329 35.7815 9.39658C36.1683 8.4642 36.3595 7.46235 36.3434 6.45308ZM13.8918 34.8402L10.795 36.3886C8.75464 33.5408 7.75266 30.0794 7.95628 26.5821C7.94176 24.7471 8.20273 22.9203 8.73048 21.1628L14.1498 18.8402L13.8918 34.8402Z" fill="black"/>
</g>
<defs>
<clipPath id="clip0">
<rect width="35.871" height="48" fill="white" transform="translate(0.472412 0.00146484)"/>
</clipPath>
</defs>
</svg>
