<svg width="49" height="48" viewBox="0 0 49 48" fill="none" xmlns="http://www.w3.org/2000/svg">
<path fill-rule="evenodd" clip-rule="evenodd" d="M0.343384 24C0.343384 37.2637 11.0987 48 24.3434 48C37.588 48 48.3434 37.2637 48.3434 24C48.3434 10.7363 37.607 0 24.3434 0C11.0797 0 0.343384 10.7363 0.343384 24Z" fill="#192E45"/>
<path fill-rule="evenodd" clip-rule="evenodd" d="M3.55477 21.1308L5.379 18.5845C5.379 18.6035 5.26498 22.2519 5.26498 22.2519L5.77805 19.4966C7.29824 22.575 11.0227 26.8315 14.4241 29.1118C14.7852 29.3588 15.0892 29.6248 15.2982 29.8909C15.7353 30.0619 16.1723 30.1569 16.6094 30.2329C16.8374 30.2709 17.0845 30.2899 17.3125 30.3089C17.5405 30.3279 17.7875 30.3279 18.0156 30.3279C18.2436 30.3279 18.4716 30.3089 18.6997 30.2899C18.9277 30.2709 19.1557 30.2329 19.3837 30.1949C19.6118 30.1569 19.8398 30.1189 20.0488 30.0429C20.2769 29.9859 20.4859 29.9289 20.7139 29.8529C20.9229 29.7959 21.151 29.7009 21.36 29.6248C21.569 29.5298 21.778 29.4538 21.9871 29.3398C22.1961 29.2258 22.4051 29.1308 22.5952 29.0168C22.8042 28.9218 22.9942 28.7887 23.2032 28.6747C23.4123 28.5607 23.6023 28.4277 23.8113 28.3137C24.0203 28.1997 24.2104 28.0666 24.4004 27.9526C24.5904 27.8196 24.7994 27.7056 24.9894 27.5726C25.1795 27.4396 25.3885 27.3256 25.5975 27.1925L25.7876 27.0785L25.8826 27.1355L27.2507 28.0476L25.8636 27.6866C25.7305 27.8386 25.5975 27.9906 25.4455 28.1427C25.2745 28.3137 25.0845 28.4847 24.9134 28.6557C24.7234 28.8077 24.5334 28.9788 24.3244 29.1118C24.1153 29.2638 23.9253 29.3968 23.6973 29.5298C23.2792 29.7959 22.8232 30.0239 22.3481 30.2139C22.1201 30.3089 21.8731 30.4039 21.645 30.48C21.398 30.556 21.17 30.632 20.9229 30.689C20.6759 30.746 20.4289 30.803 20.1818 30.841C19.9348 30.879 19.6878 30.898 19.4408 30.936C18.9467 30.955 18.4336 30.955 17.9396 30.879C17.6925 30.841 17.4455 30.803 17.1985 30.746C16.9514 30.689 16.7234 30.613 16.4954 30.537C16.0963 30.3849 15.6973 30.1949 15.3362 29.9669C15.3362 29.9669 14.0251 30.1569 14.5571 31.145C15.0892 32.1332 15.8873 32.0381 15.5073 33.1973C15.2412 33.8244 14.8612 34.4324 14.4431 35.0025C13.569 36.1807 12.2009 37.2258 12.3339 37.8529C18.5476 45.5108 32.5524 44.4467 37.8731 37.6058C37.7971 36.6177 36.2389 36.1427 35.1557 33.7294C35.4598 33.8244 35.9158 33.9574 35.9158 33.9384C35.9158 33.9194 34.6237 31.8291 34.5666 31.6201L35.4028 31.6771C35.4028 31.6771 34.3006 30.3089 34.2626 30.1759L35.3838 30.0239C35.3838 30.0239 33.9776 28.4087 33.9586 28.2757L35.3838 28.5037L33.8256 26.6225H34.5666L33.6925 25.3493C33.5405 25.2923 33.3885 25.2543 33.2365 25.2163C33.0465 25.1593 32.8564 25.1023 32.6664 25.0453C30.5381 24.3802 28.5239 23.7721 26.5856 22.556C23.8683 20.8647 21.436 18.7935 19.6118 17.1783L15.9443 15.3921C12.4289 15.126 9.12247 15.221 7.10821 15.6201L8.40037 13.4158L6.42413 15.7911C6.29111 15.7531 6.25311 15.6771 6.25311 15.6771L6.38612 12.7507L5.75904 15.3921C5.56902 15.297 5.34099 15.259 5.11296 15.259C4.23886 15.259 3.53577 15.9621 3.53577 16.8362C3.53577 17.6343 4.12484 18.2994 4.90394 18.3944L3.55477 21.1308Z" fill="#D0933A"/>
<path fill-rule="evenodd" clip-rule="evenodd" d="M5.75908 15.354C5.56906 15.278 5.34103 15.2209 5.13201 15.2209C4.2579 15.2209 3.55481 15.924 3.55481 16.7981C3.55481 17.5582 4.10588 18.2043 4.82797 18.3563C4.84697 18.3563 4.84697 18.3563 4.86597 18.3563C5.34103 18.2043 6.29115 16.9312 6.13913 16.1331C6.08213 15.848 5.94911 15.582 5.75908 15.354Z" fill="#FFCC86"/>
<path fill-rule="evenodd" clip-rule="evenodd" d="M19.6118 13.3206C19.3267 12.5415 19.4027 11.5344 19.8018 10.5843C20.3719 9.2731 21.455 8.39899 22.4811 8.39899C22.6901 8.39899 22.8802 8.43699 23.0702 8.513C23.6593 7.98094 24.3434 7.54388 25.1035 7.23984C29.303 5.56763 35.4407 8.55101 37.0179 12.6745C37.778 14.6698 37.55 16.855 36.9039 18.8503C36.3719 20.4845 34.4336 22.8408 35.1557 24.627C34.8707 24.551 28.8659 22.6888 27.1937 21.6246C24.5144 19.9524 22.1011 17.9002 20.2958 16.304L20.2388 16.247L14.1391 13.3586C14.0631 13.3206 13.9871 13.2826 13.9301 13.2446C14.8042 13.2446 18.1296 13.6436 19.6118 13.3206Z" fill="#FDD321"/>
<path d="M21.417 14.0048C21.246 14.0048 21.094 13.9668 20.9799 13.9098C20.6759 13.7768 20.4479 13.5297 20.2959 13.1497C20.0298 12.5036 20.1058 11.6105 20.4669 10.7744C20.9419 9.69125 21.8351 8.93115 22.6522 8.93115C22.8042 8.93115 22.9562 8.96916 23.1082 9.02616C23.5073 9.19719 23.7923 9.59624 23.8873 10.1663C24.0013 10.7744 23.9063 11.4775 23.6023 12.1426C23.1272 13.2257 22.2151 14.0048 21.417 14.0048Z" fill="white"/>
<path d="M22.6332 9.23511C22.7472 9.23511 22.8612 9.25411 22.9752 9.31112C23.2793 9.44414 23.5073 9.78618 23.5833 10.2422C23.6783 10.7933 23.6023 11.4394 23.3173 12.0475C22.8992 13.0166 22.0821 13.7197 21.398 13.7197C21.284 13.7197 21.17 13.7007 21.075 13.6627C20.7899 13.5487 20.6379 13.2826 20.5619 13.0736C20.3339 12.5035 20.3909 11.6674 20.7139 10.9073C21.151 9.9382 21.9491 9.23511 22.6332 9.23511ZM22.6332 8.66504C21.7211 8.66504 20.7139 9.50114 20.1819 10.6983C19.7828 11.5914 19.7258 12.5605 20.0108 13.3016C20.1819 13.7387 20.4669 14.0427 20.828 14.2137C20.999 14.2897 21.189 14.3277 21.398 14.3277C22.3101 14.3277 23.3173 13.4916 23.8303 12.2945C24.1534 11.5724 24.2484 10.8123 24.1344 10.1472C24.0203 9.48214 23.6783 9.00708 23.1842 8.79806C23.0322 8.70304 22.8422 8.66504 22.6332 8.66504Z" fill="#1D2A3A"/>
</svg>
