<svg width="61" height="85" viewBox="0 0 61 85" fill="none" xmlns="http://www.w3.org/2000/svg">
<path d="M47.1729 37.1331H13.0089V26.8587C16.4755 13.1169 30.0912 12.9279 30.0912 12.9279C30.0912 12.9279 43.7063 13.1169 47.1729 26.8587V37.1331ZM30.0912 0.00599013C30.0912 0.00599013 5.14479 -0.813212 0 26.8587V45.7055C0 45.7055 0.213021 47.7227 5.88593 51.8201C11.5589 55.9169 26.2459 67.4524 30.0912 67.4524C33.936 67.4524 48.6229 55.9169 54.2959 51.8201C59.9688 47.7227 60.1817 45.7055 60.1817 45.7055V26.8587C55.0364 -0.813212 30.0912 0.00599013 30.0912 0.00599013Z" fill="white"/>
<path d="M30.0912 71.6967C30.0912 71.6967 26.2251 71.318 23.1989 69.2169C20.1735 67.1164 0 52.7024 0 52.7024V81.2357C0 81.2357 0.170833 84.5555 3.82708 84.5555C7.48281 84.5555 30.0912 84.5555 30.0912 84.5555C30.0912 84.5555 52.6989 84.5555 56.3547 84.5555C60.0109 84.5555 60.1817 81.2357 60.1817 81.2357V52.7024C60.1817 52.7024 40.0084 67.1164 36.9823 69.2169C33.9568 71.318 30.0912 71.6967 30.0912 71.6967" fill="white"/>
</svg>
