<svg width="37" height="49" viewBox="0 0 37 49" fill="none" xmlns="http://www.w3.org/2000/svg">
<g clip-path="url(#clip0)">
<path d="M36.3424 6.45308C36.3424 1.29179 31.4392 0.00146484 27.5682 0.00146484V0.775658C29.8908 0.775658 31.6972 1.54985 31.6972 3.3563C31.6797 3.73506 31.5834 4.106 31.4147 4.44554C31.2459 4.78509 31.0084 5.08579 30.7171 5.32852C30.4258 5.57125 30.0872 5.7507 29.7228 5.85545C29.3584 5.9602 28.9762 5.98795 28.6005 5.93695C25.6835 5.62529 22.8202 4.93116 20.0843 3.87243C17.181 2.77843 14.1424 2.08391 11.0521 1.80792C9.93107 1.76323 8.8124 1.94249 7.76149 2.33521C6.71057 2.72794 5.7485 3.32625 4.93154 4.09516C4.11457 4.86407 3.4591 5.78815 3.00346 6.81335C2.54782 7.83856 2.30116 8.94432 2.27789 10.066C2.26133 11.2954 2.62408 12.5001 3.31674 13.516C4.0094 14.5319 4.99832 15.3097 6.14885 15.7434L6.40692 15.2273C5.92347 14.9973 5.51866 14.6297 5.24321 14.1707C4.96777 13.7116 4.83395 13.1814 4.85853 12.6466C4.96571 11.7931 5.40521 11.0163 6.08162 10.4848C6.75804 9.95334 7.61678 9.71011 8.47143 9.80792C11.7411 10.167 14.9505 10.9477 18.0198 12.1305C21.1529 13.0313 24.3428 13.721 27.5682 14.195V22.195L23.6972 25.5499V25.8079L27.5682 29.1628V40.2595C25.6076 41.376 23.3703 41.9129 21.1166 41.8079C19.2381 41.9067 17.361 41.5876 15.6207 40.8736C13.8803 40.1596 12.32 39.0685 11.0521 37.6789L21.6327 32.5176V14.4531L8.7295 20.1305C10.1737 17.0252 12.5094 14.42 15.4392 12.6466L15.1811 12.1305C11.1355 13.1127 7.51645 15.3779 4.86504 18.5875C2.21362 21.7971 0.672274 25.7787 0.471436 29.9369C0.484702 34.7239 2.39218 39.311 5.77706 42.6958C9.16195 46.0807 13.749 47.9882 18.5359 48.0015C20.7599 48.0338 22.9681 47.624 25.0323 46.7957C27.0965 45.9673 28.9755 44.7371 30.5602 43.1764C32.1449 41.6158 33.4036 39.7557 34.2634 37.7044C35.1231 35.6531 35.5666 33.4514 35.5682 31.2273H35.0521C33.6937 34.5219 31.3502 37.3161 28.3424 39.2273V28.6466L32.4714 25.2918V25.0337L28.6005 21.6789V13.9369C29.6086 13.9873 30.6164 13.8301 31.5613 13.4752C32.5063 13.1203 33.3683 12.5751 34.0941 11.8736C34.8198 11.172 35.3938 10.329 35.7806 9.39658C36.1673 8.4642 36.3585 7.46235 36.3424 6.45308ZM13.8908 34.8402L10.794 36.3886C8.75366 33.5408 7.75168 30.0794 7.95531 26.5821C7.94078 24.7471 8.20175 22.9203 8.7295 21.1628L14.1489 18.8402L13.8908 34.8402Z" fill="#7D7D7D"/>
</g>
<defs>
<clipPath id="clip0">
<rect width="35.871" height="48" fill="white" transform="translate(0.471436 0.00146484)"/>
</clipPath>
</defs>
</svg>
