<svg width="48" height="49" viewBox="0 0 48 49" fill="none" xmlns="http://www.w3.org/2000/svg">
<path d="M1.44678 8.31445H46.1127L23.2765 47.0667L1.44678 8.31445Z" fill="#9ACA3C"/>
<path d="M0 21.4626L11.1979 16.4927L10.8205 19.1978L12.1416 18.317L11.9528 15.6748L14.7838 13.6617L15.7903 13.536L17.4888 11.5228L20.823 10.8308L22.8362 9.82422H26.7366L27.6174 11.2083L28.498 10.6421L30.3224 10.5791L32.8388 12.089V16.4927L33.5936 16.6185L33.7824 17.4363L35.9842 17.4992L34.2856 14.6683L45.2948 13.1585L48 20.0156L40.1992 19.3236L42.1494 22.6578H34.2856V25.8032L28.3092 31.9054L28.0734 38.857L23.2766 47.0666L17.1271 36.1204L16.9856 30.899L13.3997 23.224L5.85058 23.161L6.47972 21.2108L0 21.4626Z" fill="#333333"/>
<path d="M37.8718 18.3801L36.4248 15.4862L44.4144 15.0459L45.9242 18.443L38.6896 18.1284L40.2624 21.5886L34.3488 21.5256L34.0342 18.443L37.8718 18.3801Z" fill="#FFF200"/>
<path d="M4.78125 20.2671L9.43653 18.3799L9.49947 20.5817L12.8337 19.3865L14.8467 20.8963L14.4064 22.2801H7.54925L7.92671 20.2041L4.78125 20.2671Z" fill="#FFF200"/>
<path d="M25.1636 20.2041L25.7298 23.3495C25.7298 23.3495 26.4848 23.7271 28.1204 23.0351C29.756 22.3431 30.385 22.1543 30.385 22.1543C30.385 22.1543 30.448 22.5319 29.6932 23.0351C28.9382 23.5383 27.4912 23.7899 27.4912 23.7899C27.4912 23.7899 28.1204 24.2933 29.064 23.9159C30.0076 23.5385 30.3222 23.3497 30.3222 23.3497C30.3222 23.3497 30.3222 24.4821 29.5672 24.6707C28.8124 24.8595 26.925 24.4191 25.9814 24.4821C25.0378 24.5451 24.5974 25.3627 24.5346 25.9919C24.4716 26.6211 24.912 28.4453 24.912 28.4453C24.912 28.4453 23.9054 27.1243 23.9054 26.1807C23.9054 25.2369 24.0942 24.6079 24.0942 24.6079L22.5214 24.4191L21.8294 23.3497L18.6367 23.5227C18.6367 23.5227 18.621 26.0549 19.8163 27.5645C21.0116 29.0743 22.3328 30.1439 22.3328 30.1439L23.2764 44.2985L27.051 38.6995L27.1138 31.4021L24.0312 30.3955C24.0312 30.3955 26.5476 30.6471 27.8058 30.0809C29.064 29.5147 32.2096 26.6839 32.7128 25.7403C33.216 24.7965 32.5868 17.9395 32.5868 17.9395C32.5868 17.9395 30.5108 18.8831 28.4348 19.5122C26.3588 20.1413 25.1636 20.2041 25.1636 20.2041Z" fill="#C4A43F"/>
<path d="M27.9316 12.0891C27.9316 12.0891 28.9382 11.4599 30.1964 11.8374C31.4546 12.2149 31.832 12.4665 31.832 12.4665V16.6186C31.832 16.6186 31.2658 16.996 30.3222 17.4364C29.3786 17.8768 28.7496 17.8768 28.7496 17.8768C28.7496 17.8768 28.5608 14.983 28.3092 13.7877C28.0574 12.5924 27.9316 12.0891 27.9316 12.0891Z" fill="#C4A43F"/>
<path d="M23.4023 10.6421H25.7927C25.7927 10.6421 26.7995 11.7744 27.0511 13.0955C27.3027 14.4166 27.4285 18.4429 27.4285 18.4429C27.4285 18.4429 26.6107 18.7575 25.5411 18.8833C24.4717 19.0091 24.0943 18.9461 24.0943 18.9461C24.0943 18.9461 23.8425 14.6054 23.6539 13.1585C23.4651 11.7116 23.4023 10.6421 23.4023 10.6421Z" fill="#C4A43F"/>
<path d="M18.6841 12.3406L20.7602 11.7114C20.7602 11.7114 22.207 12.6551 22.4586 14.4166C22.7104 16.1781 22.5844 18.8831 22.5844 18.8831L19.6906 19.3864C19.6906 19.3864 19.4389 15.2343 19.1244 14.039C18.8099 12.8437 18.6841 12.3406 18.6841 12.3406Z" fill="#C4A43F"/>
<path d="M14.2803 15.7377C14.2803 15.7377 14.7207 14.857 15.6014 14.7941C16.4821 14.7312 16.9854 14.9199 16.9854 14.9199L18.1178 19.3236C18.1178 19.3236 17.992 19.5753 17.1742 19.8898C16.3563 20.2042 15.8531 20.1414 15.8531 20.1414C15.8531 20.1414 15.0352 18.1284 14.7836 17.3105C14.5321 16.4927 14.2803 15.7377 14.2803 15.7377Z" fill="#C4A43F"/>
<path d="M16.2305 14.1651L17.6773 12.6553C17.6773 12.6553 18.4323 13.3473 18.558 14.1651C18.6838 14.983 18.621 18.1913 18.621 18.1913C18.621 18.1913 17.929 14.6055 17.4886 14.4168C17.0482 14.228 16.2305 14.1651 16.2305 14.1651Z" fill="#796621"/>
<path d="M13.7142 15.5488L12.8335 16.3667L12.8964 18.191L14.8466 19.6379L13.9029 17.1216L13.7142 15.5488Z" fill="#796621"/>
<path d="M22.7102 10.894L21.6406 11.3343L22.836 13.2216L22.7102 10.894Z" fill="#796621"/>
<path d="M22.27 20.6447L24.283 20.4561L24.9122 23.6645H23.0248L22.27 20.6447Z" fill="#796621"/>
<path d="M21.5779 19.8896L19.5019 20.2671L19.0615 22.4689L21.3263 22.2801L21.2005 20.2671L21.5779 19.8896Z" fill="#796621"/>
<path d="M18.2435 20.3301C18.2435 20.3301 17.8031 20.7075 17.0482 20.7705C16.2933 20.8333 15.9788 20.8333 15.9788 20.8333L15.79 22.3431L17.8031 22.4689L18.2435 20.3301Z" fill="#796621"/>
<path d="M15.0981 23.4757L17.5516 23.3813L17.4258 24.4193L16.7338 24.6081L17.6146 24.7967C17.6146 24.7967 17.6932 25.1429 17.8741 25.6303C17.9019 25.7055 17.4101 26.0235 17.4101 26.0235C17.4101 26.0235 18.0176 25.9927 18.0461 26.0587C18.2193 26.4577 18.45 26.9021 18.7468 27.3131C19.5647 28.4455 21.326 30.3957 21.326 30.3957L20.1938 30.6473L21.389 31.0249L22.0182 42.4743L18.2437 36.1835L18.1178 31.4023L18.9985 30.8991L17.9291 30.5215L15.0981 23.4757Z" fill="#796621"/>
<path d="M4.40926 2.00146C5.1903 2.00146 6.46366 2.3375 6.46366 3.16534V3.61848H5.94814V3.31388C5.94814 2.79828 5.05762 2.51706 4.42482 2.51706C3.2062 2.51706 2.26888 3.47006 2.26888 4.79804C2.26888 6.11036 3.19846 7.16498 4.44832 7.16498C5.58088 7.16498 6.24492 6.39156 6.24492 6.39156L6.55746 6.78998C6.55746 6.78998 5.7997 7.6805 4.44058 7.6805C2.83138 7.6805 1.69873 6.3994 1.69873 4.79804C1.69864 3.21224 2.86252 2.00146 4.40926 2.00146Z" fill="#9ACA3C" stroke="#9ACA3C" stroke-width="0.236374"/>
<path d="M12.229 7.10247H12.3305C12.4711 7.10247 12.557 7.07888 12.6117 6.93053L14.4084 2.09521H14.9943L16.791 6.93053C16.8457 7.07888 16.9238 7.10247 17.0723 7.10247H17.166V7.58673H16.916C16.5254 7.58673 16.4082 7.50861 16.2676 7.13369L15.7912 5.83703H13.6117L13.1274 7.13369C12.9868 7.50871 12.8774 7.58673 12.4868 7.58673H12.229V7.10247ZM15.6426 5.36041L14.9161 3.39971C14.8224 3.14189 14.7052 2.68885 14.7052 2.68885H14.6897C14.6897 2.68885 14.5725 3.14189 14.4787 3.39971L13.7601 5.36041H15.6426Z" fill="#9ACA3C" stroke="#9ACA3C" stroke-width="0.236374"/>
<path d="M23.4158 2.75131C23.4158 2.63411 23.3534 2.57957 23.244 2.57957H22.9082V2.09521H23.4862C23.8222 2.09521 23.9626 2.23581 23.9626 2.57165V6.93053C23.9626 7.04773 24.0252 7.10245 24.1346 7.10245H25.9546C26.064 7.10245 26.1264 7.04773 26.1264 6.93053V6.56335H26.642V7.11009C26.642 7.44603 26.5014 7.58663 26.1656 7.58663H23.8924C23.5564 7.58663 23.4158 7.44603 23.4158 7.11009V2.75131Z" fill="#9ACA3C" stroke="#9ACA3C" stroke-width="0.236374"/>
<path d="M33.4464 5.19629L31.9778 2.78265C31.8764 2.61855 31.7748 2.57957 31.6108 2.57957H31.4858V2.09521H31.6966C32.0716 2.09521 32.2122 2.14993 32.4464 2.53267L33.3762 4.08713C33.548 4.37617 33.7122 4.70437 33.7122 4.70437H33.7278C33.7278 4.70437 33.8918 4.37617 34.0636 4.08713L34.9932 2.53267C35.2276 2.14993 35.3682 2.09521 35.7432 2.09521H35.954V2.57957H35.829C35.6728 2.57957 35.5636 2.61865 35.4698 2.78265L33.9934 5.19629V7.58663H33.4464V5.19629Z" fill="#9ACA3C" stroke="#9ACA3C" stroke-width="0.236374"/>
<path d="M43.2119 4.71985L42.0243 2.78265C41.9151 2.60289 41.7901 2.57957 41.6337 2.57957H41.4699V2.09521H41.7587C42.1415 2.09521 42.2979 2.16551 42.5165 2.53267L43.2195 3.71223C43.3835 3.99343 43.5711 4.33711 43.5711 4.33711H43.5865C43.5865 4.33711 43.7507 3.99343 43.9227 3.71223L44.6255 2.53267C44.8443 2.16551 45.0007 2.09521 45.3833 2.09521H45.6725V2.57957H45.5085C45.3523 2.57957 45.2273 2.60297 45.1179 2.78265L43.9227 4.71985L45.6801 7.58663H45.0553L43.9147 5.69623C43.7431 5.40729 43.5633 5.09475 43.5633 5.09475H43.5477C43.5477 5.09475 43.3915 5.42287 43.2195 5.70407L42.0869 7.58663H41.4619L43.2119 4.71985Z" fill="#9ACA3C" stroke="#9ACA3C" stroke-width="0.236374"/>
</svg>
