<svg width="49" height="30" viewBox="0 0 49 30" fill="none" xmlns="http://www.w3.org/2000/svg">
<path d="M25.4579 29.2192H32.7688V20.1605H34.9301L40.2113 29.2192H48.6686L42.241 18.7697C45.2857 17.191 47.4094 14.0148 47.4094 10.3124C47.4094 5.03129 43.1055 0.765036 37.862 0.765036H25.4579V4.46746C22.7704 1.94906 19.2371 0.370361 15.2903 0.370361C7.2465 0.370361 0.668579 6.8731 0.668579 14.9921C0.668579 23.1112 7.2465 29.6327 15.3091 29.6327C19.2559 29.6327 22.7892 28.054 25.4767 25.5356V29.2192H25.4579ZM20.4963 20.1605C19.1619 21.4949 17.3201 22.3218 15.2903 22.3218C11.2684 22.3218 7.97946 19.0328 7.97946 15.0109C7.97946 10.989 11.2684 7.70004 15.2903 7.70004C17.3201 7.70004 19.1431 8.50818 20.4963 9.86136L25.4579 4.89973V25.1221L20.4963 20.1605ZM32.7688 13.7705V7.15501H36.7532C38.5762 7.15501 40.0797 8.65854 40.0797 10.4816C40.0797 12.3046 38.5762 13.7705 36.7532 13.7705H32.7688Z" fill="#00AE4D"/>
</svg>
