<?xml version="1.0" encoding="UTF-8" standalone="no"?>
<svg
   xmlns:dc="http://purl.org/dc/elements/1.1/"
   xmlns:cc="http://creativecommons.org/ns#"
   xmlns:rdf="http://www.w3.org/1999/02/22-rdf-syntax-ns#"
   xmlns:svg="http://www.w3.org/2000/svg"
   xmlns="http://www.w3.org/2000/svg"
   version="1.1"
   width="128"
   height="128"
   id="svg2">
  <metadata
     id="metadata4">
    <rdf:RDF>
      <cc:Work
         rdf:about="">
        <dc:format>image/svg+xml</dc:format>
        <dc:type
           rdf:resource="http://purl.org/dc/dcmitype/StillImage" />
        <dc:title></dc:title>
      </cc:Work>
    </rdf:RDF>
  </metadata>
  <defs
     id="defs6" />
  <rect
     width="105.87"
     height="105.87"
     x="0"
     y="0"
     id="rect8"
     style="fill:#0097ff" />
  <path
     d="m 105.875,0 0,128 22.125,0 0,-105.875 z"
     id="path10"
     style="fill:#045e9b" />
  <path
     d="M 0,105.875 22.125,128 128,128 105.875,105.875 0,105.875 z"
     id="path12"
     style="fill:#034377" />
  <path
     d="m 22.7,77.035579 8.181247,-16.4327 c 6.554632,6.32227 29.847243,15.35064 30.873403,7.27069 1.13686,-8.95167 -34.636419,-2.78447 -34.636419,-26.54149 0,-27.706738 42.126609,-25.139702 57.541059,-13.684971 l -8.09933,16.489831 c -4.74498,-2.70201 -25.47172,-11.889749 -26.77844,-5.49356 -2.00248,9.80184 36.72111,1.83929 34.09926,30.35505 -2.34353,25.48868 -46.447618,21.08346 -61.18078,8.03715 z"
     id="path14"
     style="fill:#ffffff" />
</svg>
