<svg width="346" height="380" viewBox="0 0 346 380" fill="none" xmlns="http://www.w3.org/2000/svg">
<g clip-path="url(#clip0)">
<path d="M173.152 0.00323246C154.448 0.911831 57.9553 32.1636 13.4627 56.2728C7.06098 59.7437 0.034835 71.6604 0.00195312 76.8879C0.00195312 124.722 11.5182 195.285 44.0561 257.976L107.722 194.34C95.415 163.244 102.75 127.806 126.388 104.15C140.77 90.4669 167.861 80.3703 191.4 79.9542C202.098 79.7652 212.061 81.5774 219.761 85.9621C224.269 88.5646 222.153 91.9236 220.808 93.2687L172.048 140.037C165.886 146.656 171.229 163.633 175.204 174.421C185.994 178.398 202.972 183.735 209.591 177.574L256.359 128.821C257.704 127.476 261.063 125.361 263.666 129.868C277.697 154.511 265.374 202.322 245.472 223.238C221.814 246.876 186.383 254.211 155.285 241.904L82.2308 314.943C105.984 342.462 135.881 365.464 173.144 380C307.876 327.434 346.295 164.246 346.295 76.8857C346.257 71.6579 339.236 59.7396 332.834 56.2707C288.342 32.1619 191.854 0.911965 173.149 0.00109863L173.152 0.00323246Z" fill="#3498DB"/>
<path d="M44.2007 257.864C45.0971 259.592 45.9897 261.271 46.9184 262.987C50.7643 270.091 54.8861 277.083 59.3007 283.915C63.7155 290.747 68.42 297.42 73.4315 303.889C76.3033 307.595 79.3027 311.264 82.378 314.828L155.426 241.791C186.522 254.098 221.953 246.764 245.611 223.127C265.512 202.208 277.835 154.4 263.804 129.757C261.201 125.25 257.842 127.365 256.497 128.71L209.731 177.461C203.111 183.622 186.135 178.285 175.346 174.308C171.37 163.52 166.027 146.544 172.189 139.924L220.945 93.1576C222.29 91.8125 224.406 88.4541 219.898 85.8517C212.198 81.4672 202.236 79.655 191.539 79.8442C168.004 80.2604 140.911 90.3565 126.531 104.039C102.894 127.696 95.5592 163.134 107.867 194.229L44.2007 257.864Z" fill="white"/>
</g>
<defs>
<clipPath id="clip0">
<rect width="346" height="380" fill="white"/>
</clipPath>
</defs>
</svg>
