<svg width="19" height="21" viewBox="0 0 19 21" fill="none" xmlns="http://www.w3.org/2000/svg">
<path fill-rule="evenodd" clip-rule="evenodd" d="M18.4994 2.26C18.4994 1.66061 18.2613 1.08577 17.8375 0.661939C17.4136 0.238106 16.8388 0 16.2394 0C15.64 0 15.0652 0.238106 14.6413 0.661939C14.2175 1.08577 13.9794 1.66061 13.9794 2.26C13.9794 2.26 13.9794 2.26 13.9794 2.33L4.12941 5.51C3.91043 5.18766 3.61182 4.92743 3.26258 4.75455C2.91334 4.58168 2.52534 4.50205 2.13624 4.52339C1.74714 4.54473 1.37017 4.66632 1.04193 4.87634C0.713689 5.08637 0.445332 5.3777 0.262915 5.72205C0.0804968 6.0664 -0.00978306 6.45207 0.000840093 6.84161C0.0114632 7.23115 0.122629 7.61132 0.323543 7.94522C0.524458 8.27912 0.808294 8.55539 1.14749 8.74721C1.48669 8.93904 1.86973 9.0399 2.25941 9.04C2.4943 9.03659 2.72717 8.99609 2.94941 8.92L9.41941 17.09C9.25573 17.4742 9.20168 17.8962 9.26328 18.3092C9.32487 18.7222 9.49969 19.1101 9.76834 19.4298C10.037 19.7495 10.389 19.9885 10.7852 20.1203C11.1814 20.2521 11.6065 20.2716 12.0131 20.1765C12.4197 20.0814 12.792 19.8756 13.0888 19.5818C13.3855 19.2879 13.595 18.9176 13.6941 18.512C13.7931 18.1063 13.7778 17.6811 13.6499 17.2836C13.522 16.8861 13.2865 16.5318 12.9694 16.26L16.4094 4.51C16.978 4.46947 17.51 4.21464 17.8979 3.79699C18.2859 3.37935 18.5009 2.83002 18.4994 2.26V2.26ZM11.5094 15.67C11.1612 15.6745 10.8188 15.7601 10.5094 15.92L4.18941 7.92C4.36506 7.63455 4.47441 7.31333 4.50941 6.98L14.5694 3.77C14.6745 3.88865 14.7918 3.9959 14.9194 4.09L11.5194 15.67H11.5094Z" fill="#56B366"/>
</svg>
